<svg id="Capa_1" data-name="Capa 1" xmlns="http://www.w3.org/2000/svg" viewBox="0 0 1000 1000"><rect width="1000" height="1000" style="fill:#fff"/><path d="M284.67,593.7v74.1h-13.2V593.7Z" style="fill:#1d1d1b;stroke:#1d1d1b;stroke-miterlimit:10;stroke-width:5px"/><path d="M305.9,656.14A60.49,60.49,0,0,0,329.56,661c13.5,0,21.38-5.17,21.38-12.64,0-6.93-5.46-10.89-19.26-14.73-16.68-4.29-27-10.56-27-21,0-11.55,13.19-20.12,33.06-20.12,10.46,0,18,1.76,22.59,3.63l-3.64,7.8a53.07,53.07,0,0,0-19.41-3.52c-14,0-19.26,6.05-19.26,11.11,0,6.92,6.22,10.33,20.32,14.29,17.29,4.84,26.09,10.88,26.09,21.77,0,11.43-11.68,21.33-35.79,21.33-9.86,0-20.63-2.09-26.09-4.73Z" style="fill:#1d1d1b;stroke:#1d1d1b;stroke-miterlimit:10;stroke-width:5px"/><path d="M469.84,630c0,25.5-21.38,39-47.47,39-27,0-45.95-15.18-45.95-37.6,0-23.53,20.17-38.92,47.47-38.92C451.79,592.49,469.84,608,469.84,630Zm-79.32,1.21c0,15.83,11.83,30,32.61,30,20.93,0,32.76-14,32.76-30.78,0-14.73-10.62-30.13-32.61-30.13C401.44,600.29,390.52,614.92,390.52,631.19Z" style="fill:#1d1d1b;stroke:#1d1d1b;stroke-miterlimit:10;stroke-width:5px"/><path d="M487,593.7h55v8H500.17v24.63h38.67v7.92H500.17V667.8H487Z" style="fill:#1d1d1b;stroke:#1d1d1b;stroke-miterlimit:10;stroke-width:5px"/><path d="M580.24,601.83H549.15V593.7h75.68v8.13H593.59v66H580.24Z" style="fill:#1d1d1b;stroke:#1d1d1b;stroke-miterlimit:10;stroke-width:5px"/><path d="M659,667.8,633,593.7h14l12.13,37.49c3,9.23,5.77,18.47,7.58,25.61H667c1.67-7.36,4.85-16.16,8.34-25.72L689,593.7h13.8l12.43,37.6a218.4,218.4,0,0,1,7.13,25.39h.31c2.12-8.13,5-16.38,8.19-25.61l13.49-37.38h13.5l-29,74.1h-13.8l-12.89-38.59A170.24,170.24,0,0,1,695.5,605h-.3a180.32,180.32,0,0,1-7.89,24.19L672.75,667.8Z" style="fill:#1d1d1b;stroke:#1d1d1b;stroke-miterlimit:10;stroke-width:5px"/><path d="M75.24,739.83a14.07,14.07,0,0,0,5.92,1.32c3.38,0,5.35-1.41,5.35-3.46,0-1.89-1.36-3-4.82-4-4.17-1.18-6.75-2.89-6.75-5.75,0-3.15,3.3-5.5,8.27-5.5a14,14,0,0,1,5.66,1L88,725.55a12.29,12.29,0,0,0-4.85-1c-3.49,0-4.82,1.65-4.82,3,0,1.9,1.55,2.83,5.08,3.91,4.33,1.32,6.53,3,6.53,6,0,3.13-2.92,5.84-9,5.84a16,16,0,0,1-6.52-1.3Z" style="fill:#1d1d1b;stroke:#1d1d1b;stroke-miterlimit:10"/><path d="M124.31,732.67c0,7-5.35,10.68-11.88,10.68-6.75,0-11.5-4.15-11.5-10.29,0-6.43,5-10.64,11.88-10.64C119.79,722.42,124.31,726.66,124.31,732.67Zm-19.85.33a7.88,7.88,0,0,0,8.16,8.21c5.24,0,8.2-3.82,8.2-8.42,0-4-2.66-8.23-8.16-8.23S104.46,728.56,104.46,733Z" style="fill:#1d1d1b;stroke:#1d1d1b;stroke-miterlimit:10"/><path d="M136.64,722.75h3.3v18.07h10.93V743H136.64Z" style="fill:#1d1d1b;stroke:#1d1d1b;stroke-miterlimit:10"/><path d="M165.9,722.75v12c0,4.54,2.54,6.46,6,6.46,3.79,0,6.22-2,6.22-6.46v-12h3.34v11.82c0,6.22-4.14,8.78-9.68,8.78-5.23,0-9.18-2.38-9.18-8.66V722.75Z" style="fill:#1d1d1b;stroke:#1d1d1b;stroke-miterlimit:10"/><path d="M213.07,742.35a20.19,20.19,0,0,1-6.76,1c-7.21,0-12.63-3.61-12.63-10.26,0-6.34,5.42-10.64,13.36-10.64a16.61,16.61,0,0,1,6.07.91l-.8,2.13a14.78,14.78,0,0,0-5.16-.84c-6,0-10,3-10,8.35,0,5,3.6,8.15,9.83,8.15a16.3,16.3,0,0,0,5.39-.84Z" style="fill:#1d1d1b;stroke:#1d1d1b;stroke-miterlimit:10"/><path d="M228.55,722.75V743h-3.3V722.75Z" style="fill:#1d1d1b;stroke:#1d1d1b;stroke-miterlimit:10"/><path d="M264.22,732.67c0,7-5.35,10.68-11.87,10.68-6.76,0-11.5-4.15-11.5-10.29,0-6.43,5-10.64,11.88-10.64S264.22,726.66,264.22,732.67Zm-19.84.33a7.88,7.88,0,0,0,8.16,8.21c5.23,0,8.19-3.82,8.19-8.42,0-4-2.65-8.23-8.16-8.23S244.38,728.56,244.38,733Z" style="fill:#1d1d1b;stroke:#1d1d1b;stroke-miterlimit:10"/><path d="M276.56,743V722.75h3.6l8.2,10.25a54.34,54.34,0,0,1,4.59,6.59l.08,0a70.15,70.15,0,0,1-.38-8.33v-8.48h3.11V743h-3.34l-8.12-10.28a60.24,60.24,0,0,1-4.78-6.76l-.12,0c.19,2.56.27,5,.27,8.36V743Z" style="fill:#1d1d1b;stroke:#1d1d1b;stroke-miterlimit:10"/><path d="M322.82,733.52h-9.95v7.3H324V743H309.57V722.75h13.81V725H312.87v6.4h9.95Z" style="fill:#1d1d1b;stroke:#1d1d1b;stroke-miterlimit:10"/><path d="M335.83,739.83a14.07,14.07,0,0,0,5.92,1.32c3.38,0,5.35-1.41,5.35-3.46,0-1.89-1.36-3-4.82-4-4.17-1.18-6.75-2.89-6.75-5.75,0-3.15,3.3-5.5,8.27-5.5a14,14,0,0,1,5.66,1l-.92,2.13a12.29,12.29,0,0,0-4.85-1c-3.49,0-4.82,1.65-4.82,3,0,1.9,1.55,2.83,5.08,3.91,4.33,1.32,6.53,3,6.53,6,0,3.13-2.92,5.84-9,5.84A16,16,0,0,1,335,742Z" style="fill:#1d1d1b;stroke:#1d1d1b;stroke-miterlimit:10"/><path d="M374.39,722.75V743h-3.3V722.75Z" style="fill:#1d1d1b;stroke:#1d1d1b;stroke-miterlimit:10"/><path d="M388.2,743V722.75h3.61L400,733a54.34,54.34,0,0,1,4.59,6.59l.08,0a72.34,72.34,0,0,1-.38-8.33v-8.48h3.11V743h-3.34l-8.12-10.28a61.57,61.57,0,0,1-4.78-6.76l-.11,0c.19,2.56.26,5,.26,8.36V743Z" style="fill:#1d1d1b;stroke:#1d1d1b;stroke-miterlimit:10"/><path d="M424.52,725h-7.78v-2.23h18.93V725h-7.81v18h-3.34Z" style="fill:#1d1d1b;stroke:#1d1d1b;stroke-miterlimit:10"/><path d="M459.81,733.52h-9.94v7.3H461V743H446.56V722.75h13.82V725H449.87v6.4h9.94Z" style="fill:#1d1d1b;stroke:#1d1d1b;stroke-miterlimit:10"/><path d="M492.75,742.11a29.48,29.48,0,0,1-7.86,1.11c-3.87,0-7.06-.78-9.56-2.67a9.35,9.35,0,0,1-3.57-7.55c0-6,5.28-10.46,13.85-10.46a19.19,19.19,0,0,1,6.38.94l-.8,2.13a16.27,16.27,0,0,0-5.65-.87c-6.23,0-10.29,3.06-10.29,8.14s3.91,8.18,9.87,8.18a13.35,13.35,0,0,0,4.4-.54v-6h-5.2v-2.11h8.43Z" style="fill:#1d1d1b;stroke:#1d1d1b;stroke-miterlimit:10"/><path d="M505.84,723a43.3,43.3,0,0,1,6.34-.42c3.53,0,5.8.52,7.4,1.66a4.59,4.59,0,0,1,2,3.84c0,2.68-2.13,4.45-4.82,5.18v.09a5.37,5.37,0,0,1,3.76,4.08,27,27,0,0,0,2,5.56h-3.42a22.65,22.65,0,0,1-1.7-4.84c-.76-2.79-2.13-3.84-5.13-3.93h-3.11V743h-3.3Zm3.3,9.23h3.38c3.53,0,5.77-1.53,5.77-3.84,0-2.62-2.39-3.76-5.88-3.79a17.08,17.08,0,0,0-3.27.24Z" style="fill:#1d1d1b;stroke:#1d1d1b;stroke-miterlimit:10"/><path d="M538.44,736.64,535.78,743h-3.41l8.69-20.26h4L553.77,743h-3.53l-2.73-6.37Zm8.39-2-2.51-5.83c-.57-1.33-1-2.53-1.33-3.7h-.07c-.38,1.2-.8,2.43-1.29,3.67l-2.51,5.86Z" style="fill:#1d1d1b;stroke:#1d1d1b;stroke-miterlimit:10"/><path d="M565.57,722.75h3.3v18.07H579.8V743H565.57Z" style="fill:#1d1d1b;stroke:#1d1d1b;stroke-miterlimit:10"/><path d="M604.77,733.52h-9.94v7.3h11.08V743H591.53V722.75h13.81V725H594.83v6.4h9.94Z" style="fill:#1d1d1b;stroke:#1d1d1b;stroke-miterlimit:10"/><path d="M617.79,739.83a14.07,14.07,0,0,0,5.92,1.32c3.37,0,5.35-1.41,5.35-3.46,0-1.89-1.37-3-4.82-4-4.18-1.18-6.76-2.89-6.76-5.75,0-3.15,3.31-5.5,8.28-5.5a14,14,0,0,1,5.65,1l-.91,2.13a12.31,12.31,0,0,0-4.86-1c-3.49,0-4.82,1.65-4.82,3,0,1.9,1.56,2.83,5.09,3.91,4.32,1.32,6.53,3,6.53,6,0,3.13-2.93,5.84-9,5.84A16,16,0,0,1,617,742Z" style="fill:#1d1d1b;stroke:#1d1d1b;stroke-miterlimit:10"/><path d="M666.29,733.52h-9.95v7.3h11.08V743H653V722.75h13.81V725H656.34v6.4h9.95Z" style="fill:#1d1d1b;stroke:#1d1d1b;stroke-miterlimit:10"/><path d="M679.76,743V722.75h3.6l8.2,10.25a54.34,54.34,0,0,1,4.59,6.59l.08,0a70.15,70.15,0,0,1-.38-8.33v-8.48H699V743h-3.34l-8.12-10.28a60.24,60.24,0,0,1-4.78-6.76l-.12,0c.19,2.56.27,5,.27,8.36V743Z" style="fill:#1d1d1b;stroke:#1d1d1b;stroke-miterlimit:10"/><path d="M738.69,742.35a20.14,20.14,0,0,1-6.76,1c-7.21,0-12.63-3.61-12.63-10.26,0-6.34,5.42-10.64,13.36-10.64a16.61,16.61,0,0,1,6.07.91l-.8,2.13a14.78,14.78,0,0,0-5.16-.84c-6,0-10,3-10,8.35,0,5,3.6,8.15,9.83,8.15a16.3,16.3,0,0,0,5.39-.84Z" style="fill:#1d1d1b;stroke:#1d1d1b;stroke-miterlimit:10"/><path d="M755,736.64,752.35,743h-3.41l8.69-20.26h4L770.34,743h-3.53l-2.73-6.37Zm8.38-2-2.5-5.83c-.57-1.33-.95-2.53-1.33-3.7h-.07c-.38,1.2-.8,2.43-1.29,3.67l-2.51,5.86Z" style="fill:#1d1d1b;stroke:#1d1d1b;stroke-miterlimit:10"/><path d="M782.14,722.75h3.3v18.07h10.93V743H782.14Z" style="fill:#1d1d1b;stroke:#1d1d1b;stroke-miterlimit:10"/><path d="M811.4,722.75V743h-3.3V722.75Z" style="fill:#1d1d1b;stroke:#1d1d1b;stroke-miterlimit:10"/><path d="M825.21,723a59.54,59.54,0,0,1,7-.42c4.75,0,8.12.88,10.36,2.53a8.46,8.46,0,0,1,3.61,7.27,9.59,9.59,0,0,1-3.68,7.88c-2.4,1.89-6.34,2.92-11.31,2.92-2.36,0-4.33-.1-6-.25Zm3.3,17.92a26.36,26.36,0,0,0,3.34.15c7.06,0,10.89-3.13,10.89-8.6,0-4.78-3.37-7.81-10.36-7.81a23.72,23.72,0,0,0-3.87.27Z" style="fill:#1d1d1b;stroke:#1d1d1b;stroke-miterlimit:10"/><path d="M862.67,736.64,860,743h-3.42l8.69-20.26h4L878,743h-3.53l-2.73-6.37Zm8.38-2-2.5-5.83c-.57-1.33-.95-2.53-1.33-3.7h-.08c-.38,1.2-.79,2.43-1.29,3.67l-2.5,5.86Z" style="fill:#1d1d1b;stroke:#1d1d1b;stroke-miterlimit:10"/><path d="M889.8,723a59.54,59.54,0,0,1,7-.42c4.74,0,8.12.88,10.36,2.53a8.46,8.46,0,0,1,3.61,7.27,9.6,9.6,0,0,1-3.69,7.88c-2.39,1.89-6.33,2.92-11.31,2.92-2.35,0-4.32-.1-6-.25Zm3.3,17.92a26.36,26.36,0,0,0,3.34.15c7.06,0,10.89-3.13,10.89-8.6,0-4.78-3.38-7.81-10.36-7.81a23.53,23.53,0,0,0-3.87.27Z" style="fill:#1d1d1b;stroke:#1d1d1b;stroke-miterlimit:10"/><path d="M789.33,573.42c0,6.65-6.09,11.87-14,11.87s-14.08-5.22-14.08-11.87,6.25-11.74,14.08-11.74S789.33,566.9,789.33,573.42Zm-24.58,0c0,5.22,4.5,9.37,10.66,9.37,6,0,10.42-4.15,10.42-9.3s-4.42-9.45-10.5-9.45S764.75,568.26,764.75,573.42Zm8.41,6.15H770V567.83a32.83,32.83,0,0,1,5.25-.35,9.52,9.52,0,0,1,4.74.86,3.09,3.09,0,0,1,1.34,2.57c0,1.29-1.17,2.29-2.84,2.72v.14a3.58,3.58,0,0,1,2.5,2.87,8.27,8.27,0,0,0,1,2.93h-3.41a9.07,9.07,0,0,1-1.09-2.86c-.25-1.29-1.08-1.86-2.83-1.86h-1.5Zm.09-6.65h1.5c1.74,0,3.16-.51,3.16-1.72s-.92-1.79-2.91-1.79a8.9,8.9,0,0,0-1.75.14Z" style="fill:#1d1d1b;stroke:#1d1d1b;stroke-miterlimit:10;stroke-width:0.5px"/><path d="M478.17,315c13.73-.42,27.86-.22,41.28,1.74a143.31,143.31,0,0,1,20.08,4.33q4.28,1.26,8.44,2.85c2.83,1.08,4.81,1.92,7.65,3.29,10.6,5.09,19.69,11.44,27.35,20.28a57.7,57.7,0,0,1,5.1,6.78,76.43,76.43,0,0,1,4.69,8.32A89.64,89.64,0,0,1,598.89,380c3.76,15.16,4.09,30.82,4.46,46.42a3.75,3.75,0,0,0,7.5,0c-.65-27.54-1.88-57.31-19.28-80.16-15.43-20.28-40-31.38-64.51-35.86-16.12-2.93-32.55-3.42-48.89-2.92a3.75,3.75,0,0,0,0,7.5Z" style="fill:#1d1d1b"/><path d="M605.66,424a18.23,18.23,0,0,0-7.37,16c.4,7.11,3.85,13.54,6.78,19.88l9.13,19.74c.76,1.64,1.53,3.28,2.28,4.93a10.42,10.42,0,0,1,.62,1.51,3.53,3.53,0,0,1,.36,1.9c0-.67-.24.76.07,0a6.47,6.47,0,0,0-.35.62c-.15.46.52-.61,0,0s.65-.3-.12.11a3.5,3.5,0,0,0-.63.35c-.35.3.76-.2-.06,0-.3.08-.59.18-.89.25-.13,0-1.15.18-.25.08a16.07,16.07,0,0,1-2,.09l-1-.05-.66-.06c.46.06.47.06,0,0-1.55-.32-3.09-.72-4.64-1.06-4-.86-8-1.13-11.66.82a3.76,3.76,0,0,0-1.72,4.23l6.92,18.05,3.62-4.75-18.76,1.95a3.77,3.77,0,0,0-2.65,6.4l12.08,13.42,2.65-6.4c-6.12-.26-11.06,5.09-12,10.85-.53,3.49,0,6.83.42,10.29a27.11,27.11,0,0,1,.23,3.82c0,.38,0,.75-.07,1.13-.05.76,0,.29,0,.12a14.52,14.52,0,0,1-.54,2.16c-.34,1.07.18-.29-.12.29-.15.27-.31.53-.45.8-.32.57-.2.29-.07.13a10.07,10.07,0,0,1-.78.82c-.53.51-.28.22-.13.11-.31.23-.65.39-1,.59-.06,0-.64.32-.14.1a9.62,9.62,0,0,1-1.28.43,27.91,27.91,0,0,1-7.58.72q-4.18,0-8.36-.24c-1.39-.09-2.78-.21-4.17-.35s-3-.33-4-.48a115.37,115.37,0,0,1-31.66-9.42,102.71,102.71,0,0,1-27.41-18.49c-4.64-4.43-8.63-9-11.13-15a23,23,0,0,1-.48-17.53c.73-1.82-.8-4.2-2.62-4.61a3.86,3.86,0,0,0-4.61,2.62c-5,12.45.86,25.79,9.12,35.25,7.68,8.79,17.58,16,27.82,21.47a119.31,119.31,0,0,0,33.42,12,122.24,122.24,0,0,0,18.19,2.19c5.87.25,12.5.64,18-1.84,6.87-3.13,8.06-10.77,7.22-17.5-.24-1.9-.55-3.81-.6-5.73a17.06,17.06,0,0,1,.07-2.32,6.6,6.6,0,0,1,.21-1c0-.15.44-1.25.15-.57a8.69,8.69,0,0,1,1.05-1.82c-.37.49,0,0,.08-.06s1.11-1,.53-.58c.18-.14.38-.26.57-.38s.39-.23.6-.33c-.38.14-.36.14,0,0l.66-.17c-.75.19.5,0,.74,0,3.43.15,4.71-4.11,2.65-6.4L588,509.71l-2.65,6.41,18.76-2c2.17-.23,4.57-2.25,3.61-4.75l-6.92-18-1.72,4.23c.93-.49-.44,0,.57-.25a9.1,9.1,0,0,1,1.15-.26c-.21,0-.51,0,.19,0,.41,0,.81,0,1.22,0-.05,0,1.29.11.66,0l.83.14c.84.15,1.67.34,2.5.54a27.94,27.94,0,0,0,8.32,1.13,12.17,12.17,0,0,0,7.9-3.07c2.62-2.58,3-6.42,1.89-9.8a97.66,97.66,0,0,0-4.48-10l-4.57-9.87-4.56-9.87A79.47,79.47,0,0,1,607,445.5a23,23,0,0,1-1.16-5.11,17.63,17.63,0,0,1,0-2.18c0-.24,0-.48.05-.72q.07-.69,0-.09c0-.24.08-.48.12-.72a15.28,15.28,0,0,1,.57-2.11c0-.05.48-1.13.16-.45.16-.33.32-.65.5-1s.38-.61.57-.92c.41-.68-.21.15.29-.39.25-.27.49-.54.75-.8l.54-.49c-.28.2-.23.17.13-.09a3.85,3.85,0,0,0,1.34-5.13c-.94-1.63-3.47-2.54-5.13-1.35Z" style="fill:#1d1d1b"/><line x1="382.24" y1="336.35" x2="382.24" y2="373.49" style="fill:none;stroke:#1d1d1b;stroke-miterlimit:10;stroke-width:8px"/><line x1="407.07" y1="333.86" x2="407.07" y2="436.21" style="fill:none;stroke:#1d1d1b;stroke-miterlimit:10;stroke-width:8px"/><line x1="380.18" y1="426.26" x2="380.18" y2="457.89" style="fill:none;stroke:#1d1d1b;stroke-miterlimit:10;stroke-width:8px"/><line x1="436.56" y1="432.3" x2="436.56" y2="469.98" style="fill:none;stroke:#1d1d1b;stroke-miterlimit:10;stroke-width:8px"/><line x1="419.39" y1="448.12" x2="419.39" y2="483.84" style="fill:none;stroke:#1d1d1b;stroke-miterlimit:10;stroke-width:8px"/><line x1="459.72" y1="317.1" x2="459.72" y2="352.16" style="fill:none;stroke:#1d1d1b;stroke-miterlimit:10;stroke-width:8px"/><line x1="476.89" y1="374.4" x2="476.89" y2="437.81" style="fill:none;stroke:#1d1d1b;stroke-miterlimit:10;stroke-width:8px"/><line x1="452.62" y1="480.59" x2="452.62" y2="512.98" style="fill:none;stroke:#1d1d1b;stroke-miterlimit:10;stroke-width:8px"/><line x1="493.69" y1="376.86" x2="493.69" y2="408.49" style="fill:none;stroke:#1d1d1b;stroke-miterlimit:10;stroke-width:8px"/><line x1="478.99" y1="309.05" x2="478.99" y2="343.41" style="fill:none;stroke:#1d1d1b;stroke-miterlimit:10;stroke-width:8px"/><line x1="559.77" y1="383.47" x2="559.7" y2="425.34" style="fill:none;stroke:#1d1d1b;stroke-miterlimit:10;stroke-width:8px"/><line x1="525.05" y1="421.02" x2="525.05" y2="443.59" style="fill:none;stroke:#1d1d1b;stroke-miterlimit:10;stroke-width:8px"/><ellipse cx="382.24" cy="322.49" rx="11.95" ry="11.37" style="fill:none;stroke:#1d1d1b;stroke-miterlimit:10;stroke-width:8px"/><ellipse cx="380.18" cy="414.36" rx="11.95" ry="11.37" style="fill:none;stroke:#1d1d1b;stroke-miterlimit:10;stroke-width:8px"/><ellipse cx="380.18" cy="469.8" rx="11.95" ry="11.37" style="fill:none;stroke:#1d1d1b;stroke-miterlimit:10;stroke-width:8px"/><ellipse cx="419.39" cy="497.16" rx="11.95" ry="11.37" style="fill:none;stroke:#1d1d1b;stroke-miterlimit:10;stroke-width:8px"/><ellipse cx="436.94" cy="419.87" rx="11.95" ry="11.37" style="fill:none;stroke:#1d1d1b;stroke-miterlimit:10;stroke-width:8px"/><ellipse cx="436.94" cy="379.35" rx="11.95" ry="11.37" style="fill:none;stroke:#1d1d1b;stroke-miterlimit:10;stroke-width:8px"/><ellipse cx="452.62" cy="527.02" rx="11.95" ry="11.37" style="fill:none;stroke:#1d1d1b;stroke-miterlimit:10;stroke-width:8px"/><ellipse cx="559.78" cy="369.93" rx="11.95" ry="11.37" style="fill:none;stroke:#1d1d1b;stroke-miterlimit:10;stroke-width:8px"/><ellipse cx="532.52" cy="392.68" rx="11.95" ry="11.37" style="fill:none;stroke:#1d1d1b;stroke-miterlimit:10;stroke-width:8px"/><line x1="380.46" y1="369.59" x2="406.35" y2="389.1" style="fill:none;stroke:#1d1d1b;stroke-miterlimit:10;stroke-width:8px"/><ellipse cx="535.88" cy="345.23" rx="11.95" ry="11.37" style="fill:none;stroke:#1d1d1b;stroke-miterlimit:10;stroke-width:8px"/><line x1="404.72" y1="431.83" x2="420.79" y2="451.32" style="fill:none;stroke:#1d1d1b;stroke-miterlimit:10;stroke-width:8px"/><line x1="409.12" y1="337.49" x2="439.18" y2="352.56" style="fill:none;stroke:#1d1d1b;stroke-miterlimit:10;stroke-width:8px"/><line x1="435.96" y1="348.34" x2="436.48" y2="364.65" style="fill:none;stroke:#1d1d1b;stroke-miterlimit:10;stroke-width:8px"/><line x1="457.95" y1="349.16" x2="478.79" y2="378.02" style="fill:none;stroke:#1d1d1b;stroke-miterlimit:10;stroke-width:8px"/><line x1="477.41" y1="340.61" x2="490.7" y2="362.96" style="fill:none;stroke:#1d1d1b;stroke-miterlimit:10;stroke-width:8px"/><line x1="515.45" y1="374.88" x2="524.9" y2="384.55" style="fill:none;stroke:#1d1d1b;stroke-miterlimit:10;stroke-width:8px"/><line x1="490.8" y1="405.07" x2="510.96" y2="421.73" style="fill:none;stroke:#1d1d1b;stroke-miterlimit:10;stroke-width:8px"/><line x1="507.34" y1="417.16" x2="507.34" y2="448.79" style="fill:none;stroke:#1d1d1b;stroke-miterlimit:10;stroke-width:8px"/><line x1="486.89" y1="360.51" x2="517.59" y2="360.51" style="fill:#1d1d1b;stroke:#1d1d1b;stroke-miterlimit:10;stroke-width:8px"/><line x1="488.59" y1="375.82" x2="519.89" y2="375.82" style="fill:none;stroke:#1d1d1b;stroke-miterlimit:10;stroke-width:8px"/><line x1="434.3" y1="472.84" x2="478.2" y2="429.46" style="fill:none;stroke:#1d1d1b;stroke-miterlimit:10;stroke-width:8px"/><line x1="451.45" y1="484.24" x2="492.07" y2="444.07" style="fill:none;stroke:#1d1d1b;stroke-miterlimit:10;stroke-width:8px"/><line x1="487.72" y1="447.36" x2="564.63" y2="447.36" style="fill:none;stroke:#1d1d1b;stroke-miterlimit:10;stroke-width:8px"/><line x1="519.63" y1="422.86" x2="565.31" y2="422.86" style="fill:none;stroke:#1d1d1b;stroke-miterlimit:10;stroke-width:8px"/><line x1="569.12" y1="367.98" x2="596.47" y2="367.98" style="fill:none;stroke:#1d1d1b;stroke-miterlimit:10;stroke-width:8px"/><line x1="576.53" y1="404.05" x2="576.53" y2="426.62" style="fill:none;stroke:#1d1d1b;stroke-miterlimit:10;stroke-width:8px"/><line x1="571.11" y1="405.89" x2="607.01" y2="405.89" style="fill:none;stroke:#1d1d1b;stroke-miterlimit:10;stroke-width:8px"/><line x1="560.89" y1="450.15" x2="578.56" y2="424.03" style="fill:none;stroke:#1d1d1b;stroke-miterlimit:10;stroke-width:8px"/><line x1="513.49" y1="362.47" x2="523.81" y2="354.1" style="fill:none;stroke:#1d1d1b;stroke-miterlimit:10;stroke-width:8px"/><rect x="401.12" y="326.23" width="14.32" height="7.75" style="fill:#fff;stroke:#fff;stroke-miterlimit:10;stroke-width:0.25px"/><rect x="440.12" y="345.54" width="4.94" height="18.68" style="fill:#fff;stroke:#fff;stroke-miterlimit:10;stroke-width:0.25px"/><rect x="452.15" y="315.3" width="3.5" height="40.74" style="fill:#fff;stroke:#fff;stroke-miterlimit:10;stroke-width:0.25px"/><rect x="398.1" y="430.66" width="3.86" height="7.75" style="fill:#fff"/><rect x="423.1" y="443.05" width="3.78" height="39.22" style="fill:#fff"/><rect x="428.7" y="434.73" width="3.78" height="39.18" transform="translate(-5.78 5.55) rotate(-0.73)" style="fill:#fff"/><rect x="486.07" y="435.6" width="16.72" height="7.75" style="fill:#fff"/><rect x="484.76" y="405.02" width="3.78" height="7.75" style="fill:#fff"/><rect x="511.32" y="415.78" width="9.72" height="27.48" style="fill:#fff"/><rect x="480.91" y="371.84" width="4.85" height="62.95" style="fill:#fff"/><rect x="470.25" y="342.19" width="3.63" height="5" style="fill:#fff"/><rect x="470.25" y="307.85" width="5.13" height="41.56" style="fill:#fff"/><polygon points="488.18 366.36 484.95 368.21 480.65 361.59 483.88 359.74 488.18 366.36" style="fill:#fff"/><rect x="486.65" y="364.22" width="32.18" height="3.55" style="fill:#fff"/><rect x="563.73" y="385.38" width="4.03" height="42.42" style="fill:#fff"/><rect x="580.49" y="409.91" width="3.74" height="19.35" style="fill:#fff"/><rect x="568.78" y="399.82" width="3.73" height="25.52" style="fill:#fff"/><rect x="490.46" y="451.38" width="75.88" height="5.16" transform="translate(-0.78 0.91) rotate(-0.1)" style="fill:#fff"/><rect x="610.84" y="405.55" width="18.08" height="25.9" style="fill:#fff"/><rect x="372.84" y="337.49" width="5.52" height="38.66" style="fill:#fff;stroke:#fff;stroke-miterlimit:10;stroke-width:0.25px"/><rect x="382.93" y="362.49" width="5.52" height="39.02" transform="translate(-151.52 460.01) rotate(-52.99)" style="fill:#fff"/><rect x="484.76" y="370.62" width="4.98" height="40.26" style="fill:#fff"/><rect x="397.16" y="391.68" width="5.73" height="45.35" transform="translate(-5.25 5.14) rotate(-0.73)" style="fill:#fff;stroke:#fff;stroke-miterlimit:10;stroke-width:0.25px"/><rect x="513" y="370.3" width="15.58" height="3.55" transform="translate(415.63 -259.27) rotate(45)" style="fill:#fff"/><rect x="456.54" y="423.93" width="12.37" height="69.45" transform="translate(459.85 -192.86) rotate(45)" style="fill:#fff"/></svg>