<svg id="Capa_1" data-name="Capa 1" xmlns="http://www.w3.org/2000/svg" viewBox="0 0 1000 1000"><rect width="1000" height="1000" style="fill:#fff"/><path d="M462.13,246.1c31.41-.95,63-.45,94.18,4.11,28.25,4.14,56.27,11.57,82,23.92,23.6,11.34,45.27,26.51,62.45,46.36,18.27,21.12,30,47.36,36.74,74.46,7.68,30.73,9.17,62.52,10,94.06q.15,5.94.29,11.89c.11,4.82,7.61,4.84,7.5,0-.77-32.67-1.59-65.57-8.22-97.69-5.9-28.54-16.64-56.62-34.44-79.92-16.34-21.37-37.77-38.33-61.41-51-25.42-13.63-53.18-22.38-81.51-27.46-31.64-5.67-63.88-7.06-96-6.51q-5.79.1-11.58.28a3.75,3.75,0,0,0,0,7.5Z" style="fill:#1d1d1b"/><path d="M750.65,499.38c-10.6,7.49-15.3,20.66-14.15,33.35,1.41,15.46,9.25,29.58,15.66,43.43l20.59,44.5c1.61,3.49,3.32,6.94,4.82,10.48,1.22,2.88,2.49,6.34,1.61,9.49a7.39,7.39,0,0,1-3.24,4.15,16.57,16.57,0,0,1-6.25,2.09,34.6,34.6,0,0,1-4.16.2q-1.12,0-2.25-.09c-.35,0-.69-.05-1-.09-.13,0-1.35-.16-.82-.08-3.47-.49-6.86-1.51-10.28-2.29-7.91-1.8-16.31-2.92-23.74,1.11a3.75,3.75,0,0,0-1.72,4.23l15.54,40.5,3.62-4.75L702.75,690c-3.23.34-5,3.85-2.65,6.41l27.11,30.13,2.65-6.4a20.08,20.08,0,0,0-15.79,7,28.13,28.13,0,0,0-6.91,17.45c-.44,7.21,1.22,14.32,1.82,21.47.45,5.44.3,11.23-2,16-5.33,10.82-19.23,10.68-29.89,10.77a249.41,249.41,0,0,1-37.84-2.54,257.91,257.91,0,0,1-73.05-22,235.51,235.51,0,0,1-62.08-42.18c-18.09-17.3-34.88-41.52-29.8-67.93a50.38,50.38,0,0,1,2.79-9.41c.76-1.88-.82-4.12-2.62-4.62-2.14-.58-3.85.74-4.61,2.62-5.21,12.86-4.85,27.46-.76,40.58s11.87,24.86,21,35.1A202.69,202.69,0,0,0,519.66,749a244.86,244.86,0,0,0,32.71,20.73,264.33,264.33,0,0,0,113.07,30.35c6.47.25,13,.31,19.44,0s13-1.24,18.71-4.26c12-6.33,14-20.31,12.6-32.56-.81-7.1-2.53-14.59-1.17-21.73a18.06,18.06,0,0,1,8.08-12.25,11.06,11.06,0,0,1,6.76-1.63c3.44.19,4.69-4.14,2.65-6.4L705.4,691.08l-2.65,6.4,42.1-4.37c2.17-.22,4.57-2.25,3.61-4.74l-15.54-40.5-1.72,4.23c5.66-3.06,12.5-1.61,18.47-.22s11.9,3,18.11,2.65c5.42-.3,11.29-1.75,15.15-5.83,5.19-5.49,4.54-13,1.87-19.56-3.08-7.54-6.78-14.88-10.21-22.27L764.3,584.61,754,562.36c-3.09-6.67-6.2-13.36-8.2-20.46-1.92-6.81-2.67-14.07-1.08-20.71,1.45-6.07,4.59-11.73,9.7-15.34a3.84,3.84,0,0,0,1.35-5.13c-1-1.63-3.47-2.52-5.13-1.34Z" style="fill:#1d1d1b"/><line x1="246.79" y1="293.06" x2="246.79" y2="382.01" style="fill:none;stroke:#1d1d1b;stroke-miterlimit:10;stroke-width:8px"/><line x1="302.53" y1="293.06" x2="302.53" y2="522.8" style="fill:none;stroke:#1d1d1b;stroke-miterlimit:10;stroke-width:8px"/><line x1="242.19" y1="500.47" x2="242.19" y2="571.46" style="fill:none;stroke:#1d1d1b;stroke-miterlimit:10;stroke-width:8px"/><line x1="368.73" y1="514.03" x2="368.73" y2="598.58" style="fill:none;stroke:#1d1d1b;stroke-miterlimit:10;stroke-width:8px"/><line x1="330.18" y1="549.53" x2="330.18" y2="631.13" style="fill:none;stroke:#1d1d1b;stroke-miterlimit:10;stroke-width:8px"/><line x1="420.7" y1="255.45" x2="420.7" y2="334.15" style="fill:none;stroke:#1d1d1b;stroke-miterlimit:10;stroke-width:8px"/><line x1="459.25" y1="384.06" x2="459.25" y2="526.39" style="fill:none;stroke:#1d1d1b;stroke-miterlimit:10;stroke-width:8px"/><line x1="404.77" y1="622.42" x2="404.77" y2="701.09" style="fill:none;stroke:#1d1d1b;stroke-miterlimit:10;stroke-width:8px"/><line x1="496.97" y1="389.59" x2="496.97" y2="460.58" style="fill:none;stroke:#1d1d1b;stroke-miterlimit:10;stroke-width:8px"/><line x1="463.95" y1="240.11" x2="463.95" y2="314.49" style="fill:none;stroke:#1d1d1b;stroke-miterlimit:10;stroke-width:8px"/><line x1="645.3" y1="401.6" x2="645.21" y2="494.28" style="fill:none;stroke:#1d1d1b;stroke-miterlimit:10;stroke-width:8px"/><line x1="567.36" y1="489.43" x2="567.36" y2="545.77" style="fill:none;stroke:#1d1d1b;stroke-miterlimit:10;stroke-width:8px"/><ellipse cx="246.79" cy="267.54" rx="26.82" ry="25.53" style="fill:none;stroke:#1d1d1b;stroke-miterlimit:10;stroke-width:8px"/><ellipse cx="242.19" cy="473.74" rx="26.82" ry="25.53" style="fill:none;stroke:#1d1d1b;stroke-miterlimit:10;stroke-width:8px"/><ellipse cx="242.19" cy="598.19" rx="26.82" ry="25.53" style="fill:none;stroke:#1d1d1b;stroke-miterlimit:10;stroke-width:8px"/><ellipse cx="330.18" cy="659.61" rx="26.82" ry="25.53" style="fill:none;stroke:#1d1d1b;stroke-miterlimit:10;stroke-width:8px"/><ellipse cx="369.57" cy="486.11" rx="26.82" ry="25.53" style="fill:none;stroke:#1d1d1b;stroke-miterlimit:10;stroke-width:8px"/><ellipse cx="369.57" cy="395.17" rx="26.82" ry="25.53" style="fill:none;stroke:#1d1d1b;stroke-miterlimit:10;stroke-width:8px"/><ellipse cx="404.77" cy="726.62" rx="26.82" ry="25.53" style="fill:none;stroke:#1d1d1b;stroke-miterlimit:10;stroke-width:8px"/><ellipse cx="645.3" cy="374.03" rx="26.82" ry="25.53" style="fill:none;stroke:#1d1d1b;stroke-miterlimit:10;stroke-width:8px"/><ellipse cx="584.12" cy="425.08" rx="26.82" ry="25.53" style="fill:none;stroke:#1d1d1b;stroke-miterlimit:10;stroke-width:8px"/><line x1="242.81" y1="373.26" x2="300.91" y2="417.06" style="fill:none;stroke:#1d1d1b;stroke-miterlimit:10;stroke-width:8px"/><ellipse cx="591.66" cy="318.59" rx="26.82" ry="25.53" style="fill:none;stroke:#1d1d1b;stroke-miterlimit:10;stroke-width:8px"/><line x1="297.25" y1="512.95" x2="333.33" y2="556.71" style="fill:none;stroke:#1d1d1b;stroke-miterlimit:10;stroke-width:8px"/><line x1="302" y1="296.49" x2="373.4" y2="329.44" style="fill:none;stroke:#1d1d1b;stroke-miterlimit:10;stroke-width:8px"/><line x1="367.96" y1="366.62" x2="367.96" y2="325.56" style="fill:none;stroke:#1d1d1b;stroke-miterlimit:10;stroke-width:8px"/><line x1="416.73" y1="327.41" x2="463.51" y2="392.18" style="fill:none;stroke:#1d1d1b;stroke-miterlimit:10;stroke-width:8px"/><line x1="460.42" y1="308.21" x2="490.25" y2="358.37" style="fill:none;stroke:#1d1d1b;stroke-miterlimit:10;stroke-width:8px"/><line x1="547.51" y1="387.25" x2="567" y2="406.84" style="fill:none;stroke:#1d1d1b;stroke-miterlimit:10;stroke-width:8px"/><line x1="490.46" y1="452.9" x2="535.72" y2="490.3" style="fill:none;stroke:#1d1d1b;stroke-miterlimit:10;stroke-width:8px"/><line x1="527.59" y1="480.03" x2="527.59" y2="551.02" style="fill:none;stroke:#1d1d1b;stroke-miterlimit:10;stroke-width:8px"/><line x1="481.7" y1="352.88" x2="550.6" y2="352.88" style="fill:#1d1d1b;stroke:#1d1d1b;stroke-miterlimit:10;stroke-width:8px"/><line x1="485.52" y1="387.25" x2="555.76" y2="387.25" style="fill:none;stroke:#1d1d1b;stroke-miterlimit:10;stroke-width:8px"/><line x1="363.66" y1="605.01" x2="462.19" y2="507.65" style="fill:none;stroke:#1d1d1b;stroke-miterlimit:10;stroke-width:8px"/><line x1="402.14" y1="630.6" x2="493.32" y2="540.45" style="fill:none;stroke:#1d1d1b;stroke-miterlimit:10;stroke-width:8px"/><line x1="483.55" y1="547.83" x2="656.19" y2="547.83" style="fill:none;stroke:#1d1d1b;stroke-miterlimit:10;stroke-width:8px"/><line x1="555.19" y1="492.84" x2="649.6" y2="492.84" style="fill:none;stroke:#1d1d1b;stroke-miterlimit:10;stroke-width:8px"/><line x1="670.02" y1="369.64" x2="731.4" y2="369.64" style="fill:none;stroke:#1d1d1b;stroke-miterlimit:10;stroke-width:8px"/><line x1="683.03" y1="456.65" x2="682.63" y2="503.4" style="fill:none;stroke:#1d1d1b;stroke-miterlimit:10;stroke-width:8px"/><line x1="678.87" y1="454.75" x2="751.31" y2="454.75" style="fill:none;stroke:#1d1d1b;stroke-miterlimit:10;stroke-width:8px"/><line x1="647.8" y1="554.07" x2="683.81" y2="500.32" style="fill:none;stroke:#1d1d1b;stroke-miterlimit:10;stroke-width:8px"/><line x1="542.57" y1="358.08" x2="570.23" y2="335.66" style="fill:none;stroke:#1d1d1b;stroke-miterlimit:10;stroke-width:8px"/><rect x="289.18" y="275.94" width="32.14" height="18.29" style="fill:#fff;stroke:#fff;stroke-miterlimit:10;stroke-width:0.25px"/><rect x="371.86" y="323.87" width="11.1" height="41.94" style="fill:#fff;stroke:#fff;stroke-miterlimit:10;stroke-width:0.25px"/><rect x="403.71" y="251.4" width="12.82" height="91.44" style="fill:#fff;stroke:#fff;stroke-miterlimit:10;stroke-width:0.25px"/><rect x="282.39" y="510.33" width="8.67" height="17.4" style="fill:#fff"/><rect x="334.09" y="540.24" width="8.48" height="89.99" style="fill:#fff"/><rect x="355.84" y="525.01" width="8.48" height="87.95" transform="translate(-7.26 4.66) rotate(-0.73)" style="fill:#fff"/><rect x="479.85" y="526.52" width="37.53" height="17.4" style="fill:#fff"/><rect x="476.93" y="452.78" width="8.48" height="17.4" style="fill:#fff"/><rect x="531.63" y="476.93" width="31.75" height="66.98" style="fill:#fff"/><rect x="462.84" y="376.94" width="10.88" height="141.3" style="fill:#fff"/><rect x="444.34" y="311.76" width="8.14" height="11.22" style="fill:#fff"/><rect x="444.36" y="234.68" width="15.6" height="93.29" style="fill:#fff"/><rect x="481.17" y="356.49" width="72.24" height="12.69" style="fill:#fff"/><rect x="648.9" y="403.17" width="9.05" height="95.22" style="fill:#fff"/><rect x="686.85" y="458.75" width="8.4" height="48.91" style="fill:#fff"/><rect x="670.51" y="443.62" width="8.37" height="57.28" transform="translate(9.54 -13.35) rotate(1.14)" style="fill:#fff"/><rect x="487.5" y="551.9" width="170.32" height="11.59" transform="translate(-0.96 0.99) rotate(-0.1)" style="fill:#fff"/><rect x="759.92" y="453.99" width="40.58" height="58.14" style="fill:#fff"/><rect x="225.71" y="297.12" width="17.02" height="82.84" transform="translate(-2.22 1.55) rotate(-0.38)" style="fill:#fff"/><rect x="251.31" y="353.38" width="12.39" height="87.57" transform="translate(-214.65 363.69) rotate(-52.99)" style="fill:#fff"/><rect x="476.93" y="375.57" width="16.07" height="90.36" style="fill:#fff"/><rect x="285.26" y="420.41" width="13.21" height="106.36" style="fill:#fff"/><rect x="539.82" y="381.66" width="34.96" height="7.97" transform="translate(435.92 -281.12) rotate(45)" style="fill:#fff"/><rect x="409.22" y="495.69" width="37.43" height="155.9" transform="translate(530.96 -134.58) rotate(45)" style="fill:#fff"/><rect x="431.44" y="333.63" width="72.24" height="12.69" transform="translate(520.77 -235.67) rotate(59.26)" style="fill:#fff"/><rect x="513.04" y="442.45" width="17.76" height="39.67" transform="translate(-166.89 570.18) rotate(-50.44)" style="fill:#fff"/><rect x="299.8" y="517.93" width="13.21" height="46.03" transform="translate(-257.77 279.78) rotate(-35.63)" style="fill:#fff"/><rect x="319.92" y="508.56" width="13.21" height="46.03" transform="translate(-260.88 321.46) rotate(-38.76)" style="fill:#fff"/><rect x="514.31" y="566.44" width="170.32" height="11.59" transform="translate(-0.99 1.03) rotate(-0.1)" style="fill:#fff"/><rect x="638.34" y="520.93" width="76.89" height="11.59" transform="translate(-137.49 795.84) rotate(-56.18)" style="fill:#fff"/><rect x="363.49" y="613.38" width="37.43" height="83.72" style="fill:#fff"/></svg>