<svg id="Capa_1" data-name="Capa 1" xmlns="http://www.w3.org/2000/svg" viewBox="0 0 1000 1000"><rect x="0.19" y="-0.13" width="1000" height="1000" style="fill:#1d1d1b;stroke:#1d1d1b;stroke-miterlimit:10;stroke-width:8px"/><path d="M275,589v88.58H261.43V589Z" style="fill:#fff;stroke:#fff;stroke-miterlimit:10;stroke-width:5px"/><path d="M296.8,663.63a54.9,54.9,0,0,0,24.31,5.78c13.86,0,22-6.18,22-15.11,0-8.28-5.61-13-19.79-17.62-17.14-5.12-27.74-12.61-27.74-25.1,0-13.8,13.56-24.05,34-24.05,10.75,0,18.54,2.1,23.22,4.34L349,601.2a48,48,0,0,0-19.95-4.2c-14.33,0-19.78,7.22-19.78,13.27,0,8.28,6.38,12.35,20.87,17.08,17.77,5.79,26.8,13,26.8,26,0,13.66-12,25.49-36.77,25.49-10.13,0-21.19-2.49-26.8-5.65Z" style="fill:#fff;stroke:#fff;stroke-miterlimit:10;stroke-width:5px"/><path d="M465.23,632.35c0,30.49-22,46.65-48.77,46.65-27.73,0-47.21-18.13-47.21-44.94,0-28.13,20.72-46.53,48.77-46.53C446.69,587.53,465.23,606.06,465.23,632.35Zm-81.49,1.44c0,18.93,12.15,35.88,33.5,35.88s33.65-16.69,33.65-36.8c0-17.61-10.9-36-33.5-36C395,596.86,383.74,614.34,383.74,633.79Z" style="fill:#fff;stroke:#fff;stroke-miterlimit:10;stroke-width:5px"/><path d="M482.83,589h56.56v9.59h-43V628h39.73v9.46H496.39v40.09H482.83Z" style="fill:#fff;stroke:#fff;stroke-miterlimit:10;stroke-width:5px"/><path d="M578.65,598.7H546.71V589h77.75v9.72h-32.1v78.86H578.65Z" style="fill:#fff;stroke:#fff;stroke-miterlimit:10;stroke-width:5px"/><path d="M659.51,677.56,632.87,589h14.34l12.46,44.81c3.12,11,5.92,22.08,7.79,30.63h.31c1.72-8.81,5-19.32,8.57-30.76l14-44.68h14.18l12.78,44.94c3,10.52,5.76,21,7.32,30.36H725c2.18-9.72,5.14-19.58,8.42-30.62L747.23,589H761.1l-29.76,88.58H717.16l-13.24-46.13a230.55,230.55,0,0,1-6.86-28.92h-.31a242.08,242.08,0,0,1-8.1,28.92l-15,46.13Z" style="fill:#fff;stroke:#fff;stroke-miterlimit:10;stroke-width:5px"/><path d="M801,550.05c0,8.63-7.12,15.4-16.38,15.4s-16.47-6.77-16.47-15.4c0-8.44,7.31-15.22,16.47-15.22S801,541.61,801,550.05Zm-28.76,0a12.08,12.08,0,0,0,12.48,12.15,11.93,11.93,0,0,0,12.18-12.06,12.33,12.33,0,0,0-24.66-.09Zm9.85,8h-3.71V542.81a33.87,33.87,0,0,1,6.14-.46c3,0,4.39.46,5.56,1.11a4.14,4.14,0,0,1,1.56,3.34c0,1.67-1.37,3-3.32,3.53v.18c1.56.56,2.44,1.67,2.93,3.71.49,2.32.78,3.25,1.17,3.81h-4c-.49-.56-.78-1.95-1.26-3.71-.3-1.67-1.27-2.42-3.32-2.42H782.1Zm.09-8.63H784c2,0,3.7-.65,3.7-2.23,0-1.39-1.07-2.32-3.41-2.32a9.48,9.48,0,0,0-2,.19Z" style="fill:#fff;stroke:#fff;stroke-miterlimit:10;stroke-width:0.5px"/><path d="M496.62,277.29c13.14-.43,26.66-.2,39.47,1.86a125.86,125.86,0,0,1,19.15,4.58A89.11,89.11,0,0,1,570.1,290c2.58,1.36,5.1,2.83,7.54,4.43s4.45,3.08,6.26,4.56a73.51,73.51,0,0,1,11.61,11.78c-.39-.49.4.54.37.5l.47.64c.45.61.88,1.24,1.31,1.87q1.35,2,2.56,4.07a79,79,0,0,1,4.21,8.38c1,2.31,2.12,5.43,3,8.13q1.36,4.41,2.36,8.91c3.28,14.78,3.57,30,3.91,45.18a3.75,3.75,0,0,0,7.5,0c-.59-26.78-1.52-55.69-17.16-78.64-13.9-20.4-37.1-32.25-60.84-37-15.31-3-31-3.55-46.55-3a3.75,3.75,0,0,0,0,7.5Z" style="fill:#fff"/><path d="M616,386a18.56,18.56,0,0,0-7,16c.38,6.92,3.5,13.21,6.22,19.45L623.64,441l2,4.55c.31.71.45,1,.7,1.7.11.29.21.58.29.87s.17.58.24.87c.1.48.12.59,0,.32,0,.26,0,.63.06.31,0,.25-.56,1.29-.1.51,0,0-.54.8-.18.34s-.26.23-.28.25c.51-.55.22-.13,0,0l-.64.34c.82-.4-.06,0-.23,0s-.6.14-.91.21c.8-.18.14,0-.1,0s-.75.05-1.13,0-.55,0-.82,0-1.34-.18-.45,0c-1.53-.27-3-.72-4.53-1.08-3.83-.9-7.73-1.21-11.28.78a3.77,3.77,0,0,0-1.73,4.23l6.49,18,3.62-4.75-17.58,1.95a3.81,3.81,0,0,0-2.65,6.4l11.32,13.39,2.65-6.4c-6-.27-10.63,5.26-11.42,10.83a37.78,37.78,0,0,0,.33,9.79,32,32,0,0,1,.27,3.91c0,.63,0,1.26-.1,1.88,0-.17.12-.64,0,.12q-.11.54-.24,1.08a10.59,10.59,0,0,1-.33,1.05c.06-.16.3-.56,0,.1-.11.21-.22.42-.34.63,0,0-.71.95-.26.41-.16.19-.33.36-.5.54-.74.81.24-.12-.26.24a8.09,8.09,0,0,1-.79.5s-1,.46-.46.24c-2.5.94-4.21.9-7.05,1-2.67,0-5.34,0-8-.19-1.29-.08-2.59-.19-3.88-.32l-2-.23c-.81-.1-.64-.08-1.44-.2a98.94,98.94,0,0,1-56.11-28.05c-4.13-4.2-8-9.08-10.09-14.41a29.07,29.07,0,0,1-2-9,20.78,20.78,0,0,1,1.4-9,3.77,3.77,0,0,0-2.62-4.61,3.84,3.84,0,0,0-4.61,2.62c-4.6,12.24.59,25.27,8.37,34.89,7.19,8.88,16.7,16.2,26.58,21.84a107.36,107.36,0,0,0,48.73,14.05c5.54.23,12,.62,17-2.15,6.42-3.54,7-11.14,6.24-17.65-.39-3.21-1.08-6.72.14-9.7-.08.18-.29.51.06-.07.18-.31.36-.62.53-.93.5-.88-.42.37.27-.36.24-.26.48-.5.73-.74.76-.71-.33.18.19-.13.17-.1,1.18-.54.45-.29l.63-.18c.44-.09.44-.09,0,0a5.15,5.15,0,0,1,.68,0,3.72,3.72,0,0,0,3.43-2.3,3.86,3.86,0,0,0-.78-4.1l-11.31-13.4-2.66,6.41L614.64,476c2.21-.24,4.52-2.22,3.61-4.74l-6.48-18L610,457.46a4.59,4.59,0,0,1,3-.47,26.61,26.61,0,0,1,4,.82,22.32,22.32,0,0,0,8,.95c2.73-.3,5.49-1.19,7.32-3.37,2.45-2.9,2.54-6.69,1.28-10.14s-2.8-6.59-4.22-9.86l-4.35-10-4.15-9.55a77.43,77.43,0,0,1-3.38-8.64,23.73,23.73,0,0,1-1-4.84,18.44,18.44,0,0,1,0-2.23c0-.25,0-.49.05-.74,0-.46,0-.5,0-.12,0-.24.08-.49.13-.73a11.44,11.44,0,0,1,1.21-3.6,6.5,6.5,0,0,1,.37-.63c.12-.21.26-.41.4-.61-.19.23-.21.25,0,.05s.39-.46.6-.68,1.11-1,.61-.61c1.61-1.23,2.46-3.23,1.35-5.14-.93-1.58-3.51-2.58-5.13-1.34Z" style="fill:#fff"/><line x1="406.73" y1="298.56" x2="406.73" y2="333.06" style="fill:none;stroke:#fff;stroke-miterlimit:10;stroke-width:8px"/><line x1="429.99" y1="296.08" x2="429.99" y2="398.19" style="fill:none;stroke:#fff;stroke-miterlimit:10;stroke-width:8px"/><line x1="404.8" y1="388.26" x2="404.8" y2="419.82" style="fill:none;stroke:#fff;stroke-miterlimit:10;stroke-width:8px"/><line x1="457.63" y1="394.29" x2="457.63" y2="431.87" style="fill:none;stroke:#fff;stroke-miterlimit:10;stroke-width:8px"/><line x1="441.66" y1="410.57" x2="441.66" y2="445.7" style="fill:none;stroke:#fff;stroke-miterlimit:10;stroke-width:8px"/><line x1="479.32" y1="279.36" x2="479.32" y2="314.34" style="fill:none;stroke:#fff;stroke-miterlimit:10;stroke-width:8px"/><line x1="495.42" y1="336.52" x2="495.42" y2="399.79" style="fill:none;stroke:#fff;stroke-miterlimit:10;stroke-width:8px"/><line x1="472.67" y1="442.47" x2="472.67" y2="474.78" style="fill:none;stroke:#fff;stroke-miterlimit:10;stroke-width:8px"/><line x1="511.16" y1="338.98" x2="511.16" y2="370.54" style="fill:none;stroke:#fff;stroke-miterlimit:10;stroke-width:8px"/><line x1="497.38" y1="271.33" x2="497.38" y2="305.6" style="fill:none;stroke:#fff;stroke-miterlimit:10;stroke-width:8px"/><line x1="573.01" y1="386.45" x2="573.08" y2="343.41" style="fill:none;stroke:#fff;stroke-miterlimit:10;stroke-width:8px"/><line x1="540.55" y1="383.03" x2="540.55" y2="405.55" style="fill:none;stroke:#fff;stroke-miterlimit:10;stroke-width:8px"/><ellipse cx="406.73" cy="284.73" rx="11.2" ry="11.35" style="fill:none;stroke:#fff;stroke-miterlimit:10;stroke-width:8px"/><ellipse cx="404.8" cy="376.39" rx="11.2" ry="11.35" style="fill:none;stroke:#fff;stroke-miterlimit:10;stroke-width:8px"/><ellipse cx="404.8" cy="431.7" rx="11.2" ry="11.35" style="fill:none;stroke:#fff;stroke-miterlimit:10;stroke-width:8px"/><ellipse cx="441.54" cy="459" rx="11.2" ry="11.35" style="fill:none;stroke:#fff;stroke-miterlimit:10;stroke-width:8px"/><ellipse cx="457.98" cy="381.88" rx="11.2" ry="11.35" style="fill:none;stroke:#fff;stroke-miterlimit:10;stroke-width:8px"/><ellipse cx="457.41" cy="341.46" rx="11.2" ry="11.35" style="fill:none;stroke:#fff;stroke-miterlimit:10;stroke-width:8px"/><ellipse cx="472.67" cy="488.78" rx="11.2" ry="11.35" style="fill:none;stroke:#fff;stroke-miterlimit:10;stroke-width:8px"/><ellipse cx="573.08" cy="332.07" rx="11.2" ry="11.35" style="fill:none;stroke:#fff;stroke-miterlimit:10;stroke-width:8px"/><ellipse cx="547.54" cy="354.76" rx="11.2" ry="11.35" style="fill:none;stroke:#fff;stroke-miterlimit:10;stroke-width:8px"/><line x1="403.77" y1="329.85" x2="429.32" y2="351.19" style="fill:none;stroke:#fff;stroke-miterlimit:10;stroke-width:8px"/><ellipse cx="550.69" cy="307.42" rx="11.2" ry="11.35" style="fill:none;stroke:#fff;stroke-miterlimit:10;stroke-width:8px"/><line x1="427.45" y1="394.29" x2="442.85" y2="413.26" style="fill:none;stroke:#fff;stroke-miterlimit:10;stroke-width:8px"/><line x1="431.92" y1="299.7" x2="460.32" y2="314.6" style="fill:none;stroke:#fff;stroke-miterlimit:10;stroke-width:8px"/><line x1="457.06" y1="310.53" x2="457.06" y2="326.79" style="fill:none;stroke:#fff;stroke-miterlimit:10;stroke-width:8px"/><line x1="477.67" y1="311.34" x2="497.2" y2="340.13" style="fill:none;stroke:#fff;stroke-miterlimit:10;stroke-width:8px"/><line x1="495.9" y1="302.81" x2="509.03" y2="324.33" style="fill:none;stroke:#fff;stroke-miterlimit:10;stroke-width:8px"/><line x1="531.54" y1="337" x2="540.4" y2="346.65" style="fill:none;stroke:#fff;stroke-miterlimit:10;stroke-width:8px"/><line x1="508.45" y1="367.12" x2="527.34" y2="383.74" style="fill:none;stroke:#fff;stroke-miterlimit:10;stroke-width:8px"/><line x1="523.94" y1="379.18" x2="523.94" y2="410.73" style="fill:none;stroke:#fff;stroke-miterlimit:10;stroke-width:8px"/><line x1="504.79" y1="322.66" x2="533.55" y2="322.66" style="fill:#1d1d1b;stroke:#fff;stroke-miterlimit:10;stroke-width:8px"/><line x1="506.38" y1="337.94" x2="535.7" y2="337.94" style="fill:none;stroke:#fff;stroke-miterlimit:10;stroke-width:8px"/><line x1="455.51" y1="434.73" x2="496.64" y2="391.45" style="fill:none;stroke:#fff;stroke-miterlimit:10;stroke-width:8px"/><line x1="471.58" y1="446.1" x2="509.64" y2="406.03" style="fill:none;stroke:#fff;stroke-miterlimit:10;stroke-width:8px"/><line x1="505.56" y1="409.32" x2="577.63" y2="409.32" style="fill:none;stroke:#fff;stroke-miterlimit:10;stroke-width:8px"/><line x1="535.47" y1="384.87" x2="578.26" y2="384.87" style="fill:none;stroke:#fff;stroke-miterlimit:10;stroke-width:8px"/><line x1="581.84" y1="330.11" x2="607.46" y2="330.11" style="fill:none;stroke:#fff;stroke-miterlimit:10;stroke-width:8px"/><line x1="588.78" y1="366.1" x2="588.78" y2="388.62" style="fill:none;stroke:#fff;stroke-miterlimit:10;stroke-width:8px"/><line x1="583.7" y1="367.94" x2="617.34" y2="367.94" style="fill:none;stroke:#fff;stroke-miterlimit:10;stroke-width:8px"/><line x1="574.12" y1="412.09" x2="590.68" y2="386.04" style="fill:none;stroke:#fff;stroke-miterlimit:10;stroke-width:8px"/><line x1="529.64" y1="324.7" x2="539.38" y2="316.27" style="fill:none;stroke:#fff;stroke-miterlimit:10;stroke-width:8px"/><rect x="424.23" y="288.47" width="13.42" height="7.73" style="fill:#1d1d1b"/><rect x="460.97" y="308.34" width="3.4" height="18.23" style="fill:#1d1d1b"/><rect x="471.12" y="277.51" width="4.52" height="43.7" style="fill:#1d1d1b"/><rect x="399.4" y="299.6" width="3.42" height="37.75" style="fill:#1d1d1b"/><rect x="422.35" y="353.58" width="3.62" height="48.08" style="fill:#1d1d1b"/><rect x="445.66" y="409.85" width="3.6" height="2.56" style="fill:#1d1d1b"/><rect x="450.07" y="396.77" width="3.54" height="39.09" style="fill:#1d1d1b"/><rect x="476.87" y="389.01" width="12.73" height="61.21" transform="translate(422.03 -217.45) rotate(43.54)" style="fill:#1d1d1b"/><rect x="503.92" y="396.77" width="5.99" height="8.54" style="fill:#1d1d1b"/><rect x="527.72" y="377.26" width="8.98" height="28.05" style="fill:#1d1d1b"/><rect x="499.26" y="333.96" width="8.3" height="62.81" style="fill:#1d1d1b"/><rect x="489.19" y="304.39" width="3.4" height="4.99" style="fill:#fff"/><rect x="488.4" y="270.13" width="5.24" height="41.47" style="fill:#1d1d1b"/><rect x="496.3" y="303.26" width="3.54" height="28.22" transform="translate(-92.41 305.77) rotate(-31.38)" style="fill:#1d1d1b"/><rect x="504.36" y="326.53" width="35.61" height="8.51" style="fill:#1d1d1b"/><rect x="577" y="346.96" width="4.58" height="42.84" style="fill:#1d1d1b"/><rect x="592.75" y="371.95" width="3.51" height="20.24" style="fill:#1d1d1b"/><rect x="580.5" y="362.07" width="4.24" height="25.82" style="fill:#1d1d1b"/><rect x="508.26" y="413.26" width="72.15" height="6.08" style="fill:#1d1d1b"/><rect x="621.13" y="367.6" width="16.94" height="25.84" style="fill:#1d1d1b"/><rect x="530.46" y="333.83" width="13.18" height="2.79" transform="translate(420.88 -287.11) rotate(47.45)" style="fill:#1d1d1b"/><path d="M60.44,773.52l2-1.72a11.88,11.88,0,0,0,7.18,2.44C73,774.24,75,773,75,771s-1.88-2.65-4.34-3.46L67,766.33c-2.42-.78-5.27-2.17-5.27-5.07s3.47-5.22,8.2-5.22a12.64,12.64,0,0,1,7.66,2.44l-1.76,1.61a9.81,9.81,0,0,0-5.9-1.85c-2.92,0-4.86,1.11-4.86,2.88s2.27,2.6,4.31,3.25l3.71,1.22c3,1,5.36,2.33,5.36,5.26,0,3.11-3.39,5.6-8.87,5.6A14.61,14.61,0,0,1,60.44,773.52Z" style="fill:#fff;stroke:#fff;stroke-miterlimit:10"/><path d="M89.93,766.17c0-6.3,4.58-10.13,11.12-10.13s11.13,3.84,11.13,10.13-4.59,10.28-11.13,10.28S89.93,772.48,89.93,766.17Zm18.83,0c0-4.9-3.06-7.93-7.71-7.93s-7.7,3-7.7,7.93,3.05,8.07,7.7,8.07S108.76,771.08,108.76,766.17Z" style="fill:#fff;stroke:#fff;stroke-miterlimit:10"/><path d="M125.71,756.4H129V774h11.36v2.12H125.71Z" style="fill:#fff;stroke:#fff;stroke-miterlimit:10"/><path d="M152.81,768V756.4h3.31V768c0,4.73,2.64,6.21,6,6.21s6.17-1.48,6.17-6.21V756.4h3.18V768c0,6.32-4,8.49-9.35,8.49S152.81,774.28,152.81,768Z" style="fill:#fff;stroke:#fff;stroke-miterlimit:10"/><path d="M184.92,766.26c0-6.35,4.94-10.22,11.55-10.22a11.23,11.23,0,0,1,7.16,2.43l-1.82,1.63a8.14,8.14,0,0,0-5.28-1.86c-4.92,0-8.19,3-8.19,8s3.12,8,8.06,8a8.9,8.9,0,0,0,6-2.21l1.81,1.57a11.49,11.49,0,0,1-8,2.85C189.78,776.45,184.92,772.65,184.92,766.26Z" style="fill:#fff;stroke:#fff;stroke-miterlimit:10"/><path d="M217,756.4h3.31v19.69H217Z" style="fill:#fff;stroke:#fff;stroke-miterlimit:10"/><path d="M233.86,766.17c0-6.3,4.59-10.13,11.12-10.13s11.13,3.84,11.13,10.13-4.59,10.28-11.13,10.28S233.86,772.48,233.86,766.17Zm18.83,0c0-4.9-3.06-7.93-7.71-7.93s-7.7,3-7.7,7.93,3.06,8.07,7.7,8.07S252.69,771.08,252.69,766.17Z" style="fill:#fff;stroke:#fff;stroke-miterlimit:10"/><path d="M269.64,756.4h3.42l9.42,12.38,2.81,4.07h.16c-.17-2-.42-4.2-.42-6.26V756.4h3.14v19.69h-3.42l-9.42-12.39-2.81-4.07h-.16c.17,2,.42,4.09.42,6.15v10.31h-3.14Z" style="fill:#fff;stroke:#fff;stroke-miterlimit:10"/><path d="M303.23,756.4h15v2.12H306.54v6.17h9.87v2.12h-9.87V774h12.09v2.12h-15.4Z" style="fill:#fff;stroke:#fff;stroke-miterlimit:10"/><path d="M330.18,773.52l2-1.72a11.88,11.88,0,0,0,7.18,2.44c3.42,0,5.44-1.28,5.44-3.2s-1.88-2.65-4.34-3.46l-3.74-1.25c-2.42-.78-5.27-2.17-5.27-5.07s3.47-5.22,8.2-5.22a12.64,12.64,0,0,1,7.66,2.44l-1.76,1.61a9.81,9.81,0,0,0-5.9-1.85c-2.92,0-4.86,1.11-4.86,2.88s2.27,2.6,4.31,3.25l3.71,1.22c3,1,5.36,2.33,5.36,5.26,0,3.11-3.39,5.6-8.87,5.6A14.61,14.61,0,0,1,330.18,773.52Z" style="fill:#fff;stroke:#fff;stroke-miterlimit:10"/><path d="M369.11,756.4h3.31v19.69h-3.31Z" style="fill:#fff;stroke:#fff;stroke-miterlimit:10"/><path d="M387.47,756.4h3.42l9.42,12.38,2.81,4.07h.16c-.16-2-.42-4.2-.42-6.26V756.4H406v19.69h-3.42l-9.42-12.39-2.81-4.07h-.16c.16,2,.42,4.09.42,6.15v10.31h-3.15Z" style="fill:#fff;stroke:#fff;stroke-miterlimit:10"/><path d="M426.49,758.52h-7.88V756.4h19.06v2.12H429.8v17.57h-3.31Z" style="fill:#fff;stroke:#fff;stroke-miterlimit:10"/><path d="M450.26,756.4h15v2.12H453.57v6.17h9.86v2.12h-9.86V774h12.09v2.12h-15.4Z" style="fill:#fff;stroke:#fff;stroke-miterlimit:10"/><path d="M477.58,766.26c0-6.35,5.05-10.22,11.95-10.22a11.76,11.76,0,0,1,7.5,2.43l-1.81,1.63a8.54,8.54,0,0,0-5.6-1.86c-5.25,0-8.62,3-8.62,8s3.1,8,8.65,8a8.64,8.64,0,0,0,4.69-1.15V768h-5.51v-2.08h8.53v8.28a13.27,13.27,0,0,1-8,2.29C482.47,776.45,477.58,772.65,477.58,766.26Z" style="fill:#fff;stroke:#fff;stroke-miterlimit:10"/><path d="M511.5,756.4h8.15c5.3,0,9.11,1.44,9.11,5.54,0,3.93-3.81,5.82-9.11,5.82h-4.84v8.33H511.5Zm7.67,9.33c4.05,0,6.28-1.24,6.28-3.79s-2.23-3.51-6.28-3.51h-4.36v7.3Zm-.17,1.35,2.59-1.3,7.94,10.31h-3.75Z" style="fill:#fff;stroke:#fff;stroke-miterlimit:10"/><path d="M547.35,756.4h3.73l8.81,19.69h-3.51l-4.54-11c-.93-2.2-1.77-4.36-2.6-6.63h-.16c-.81,2.28-1.64,4.43-2.58,6.63l-4.59,11h-3.37Zm-4.18,11.69h12v2h-12Z" style="fill:#fff;stroke:#fff;stroke-miterlimit:10"/><path d="M571.35,756.4h3.31V774H586v2.12H571.35Z" style="fill:#fff;stroke:#fff;stroke-miterlimit:10"/><path d="M598.55,756.4h15v2.12H601.87v6.17h9.86v2.12h-9.86V774H614v2.12h-15.4Z" style="fill:#fff;stroke:#fff;stroke-miterlimit:10"/><path d="M625.5,773.52l2-1.72a11.88,11.88,0,0,0,7.18,2.44c3.42,0,5.44-1.28,5.44-3.2s-1.88-2.65-4.34-3.46L632,766.33c-2.42-.78-5.27-2.17-5.27-5.07S630.22,756,635,756a12.64,12.64,0,0,1,7.66,2.44l-1.76,1.61a9.81,9.81,0,0,0-5.9-1.85c-2.92,0-4.86,1.11-4.86,2.88s2.27,2.6,4.31,3.25l3.71,1.22c3,1,5.37,2.33,5.37,5.26,0,3.11-3.4,5.6-8.87,5.6A14.64,14.64,0,0,1,625.5,773.52Z" style="fill:#fff;stroke:#fff;stroke-miterlimit:10"/><path d="M664.43,756.4h15v2.12H667.74v6.17h9.87v2.12h-9.87V774h12.09v2.12h-15.4Z" style="fill:#fff;stroke:#fff;stroke-miterlimit:10"/><path d="M693.27,756.4h3.42l9.42,12.38,2.81,4.07h.16c-.17-2-.43-4.2-.43-6.26V756.4h3.15v19.69h-3.42L699,763.7l-2.81-4.07H696c.17,2,.42,4.09.42,6.15v10.31h-3.14Z" style="fill:#fff;stroke:#fff;stroke-miterlimit:10"/><path d="M733.28,766.26c0-6.35,5-10.22,11.55-10.22a11.21,11.21,0,0,1,7.16,2.43l-1.82,1.63a8.1,8.1,0,0,0-5.28-1.86c-4.92,0-8.19,3-8.19,8s3.13,8,8.06,8a8.9,8.9,0,0,0,6-2.21l1.82,1.57a11.54,11.54,0,0,1-8,2.85C738.14,776.45,733.28,772.65,733.28,766.26Z" style="fill:#fff;stroke:#fff;stroke-miterlimit:10"/><path d="M770.72,756.4h3.74l8.81,19.69h-3.51l-4.54-11c-.94-2.2-1.77-4.36-2.61-6.63h-.15c-.81,2.28-1.65,4.43-2.58,6.63l-4.59,11h-3.37Zm-4.17,11.69h12v2h-12Z" style="fill:#fff;stroke:#fff;stroke-miterlimit:10"/><path d="M794.72,756.4H798V774h11.36v2.12H794.72Z" style="fill:#fff;stroke:#fff;stroke-miterlimit:10"/><path d="M821.93,756.4h3.31v19.69h-3.31Z" style="fill:#fff;stroke:#fff;stroke-miterlimit:10"/><path d="M840.29,756.4h6.51c8,0,12.3,3.52,12.3,9.77s-4.29,9.92-12.15,9.92h-6.66ZM846.56,774c6.08,0,9.12-2.88,9.12-7.86s-3-7.72-9.12-7.72h-3V774Z" style="fill:#fff;stroke:#fff;stroke-miterlimit:10"/><path d="M878,756.4h3.74l8.8,19.69H887l-4.54-11c-.93-2.2-1.77-4.36-2.6-6.63h-.16c-.81,2.28-1.64,4.43-2.58,6.63l-4.58,11h-3.38Zm-4.18,11.69h12v2h-12Z" style="fill:#fff;stroke:#fff;stroke-miterlimit:10"/><path d="M902,756.4h6.51c8,0,12.29,3.52,12.29,9.77s-4.29,9.92-12.15,9.92H902ZM908.23,774c6.09,0,9.12-2.88,9.12-7.86s-3-7.72-9.12-7.72h-3V774Z" style="fill:#fff;stroke:#fff;stroke-miterlimit:10"/></svg>